<?xml version="1.0" encoding="UTF-8"?>
<svg xmlns="http://www.w3.org/2000/svg" xmlns:xlink="http://www.w3.org/1999/xlink" width="20px" height="20px" viewBox="0 0 20 20" version="1.1">
<g id="surface1">
<path style=" stroke:none;fill-rule:nonzero;fill:white;fill-opacity:1;" d="M 18.765625 6.917969 C 17.746094 5.894531 16.097656 5.882812 15.019531 6.851562 C 13.765625 6.25 12.316406 5.863281 10.757812 5.773438 C 11.332031 3.984375 12.519531 1.480469 13.714844 1.242188 C 14.117188 1.160156 14.554688 1.371094 15.015625 1.871094 C 14.980469 2.003906 14.957031 2.140625 14.957031 2.28125 C 14.957031 3.167969 15.675781 3.886719 16.558594 3.886719 C 17.445312 3.886719 18.164062 3.171875 18.164062 2.28125 C 18.164062 1.398438 17.445312 0.679688 16.558594 0.679688 C 16.273438 0.679688 16 0.761719 15.765625 0.898438 C 15.039062 0.175781 14.269531 -0.117188 13.472656 0.0429688 C 11.148438 0.511719 9.742188 4.871094 9.476562 5.765625 C 7.835938 5.839844 6.308594 6.234375 5 6.871094 C 3.925781 5.878906 2.261719 5.886719 1.230469 6.917969 C 0.21875 7.929688 0.199219 9.558594 1.144531 10.636719 C 0.835938 11.339844 0.664062 12.089844 0.664062 12.871094 C 0.664062 16.800781 4.867188 20 10.03125 20 C 15.195312 20 19.398438 16.800781 19.398438 12.871094 C 19.398438 12.070312 19.21875 11.304688 18.898438 10.585938 C 19.800781 9.511719 19.765625 7.917969 18.765625 6.917969 Z M 1.664062 7.347656 C 2.410156 6.601562 3.585938 6.554688 4.421875 7.179688 C 3.128906 7.917969 2.09375 8.898438 1.4375 10.039062 C 0.867188 9.210938 0.9375 8.074219 1.664062 7.347656 Z M 10.03125 18.773438 C 5.539062 18.773438 1.886719 16.125 1.886719 12.871094 C 1.886719 9.617188 5.539062 6.964844 10.03125 6.964844 C 14.523438 6.964844 18.175781 9.617188 18.175781 12.871094 C 18.175781 16.128906 14.523438 18.773438 10.03125 18.773438 Z M 15.605469 7.15625 C 16.441406 6.554688 17.597656 6.613281 18.335938 7.351562 C 19.046875 8.0625 19.128906 9.167969 18.59375 9.992188 C 17.933594 8.859375 16.898438 7.886719 15.605469 7.15625 Z M 6.621094 12.769531 C 5.777344 12.769531 5.09375 12.085938 5.09375 11.242188 C 5.09375 10.398438 5.777344 9.714844 6.621094 9.714844 C 7.464844 9.714844 8.148438 10.398438 8.148438 11.242188 C 8.148438 12.085938 7.460938 12.769531 6.621094 12.769531 Z M 14.957031 11.242188 C 14.957031 12.085938 14.273438 12.769531 13.429688 12.769531 C 12.585938 12.769531 11.902344 12.085938 11.902344 11.242188 C 11.902344 10.398438 12.585938 9.714844 13.429688 9.714844 C 14.273438 9.714844 14.957031 10.398438 14.957031 11.242188 Z M 13.671875 15.296875 C 13.878906 15.5625 13.832031 15.945312 13.5625 16.15625 C 12.289062 17.144531 11.050781 17.476562 9.96875 17.476562 C 7.800781 17.476562 6.242188 16.152344 6.21875 16.128906 C 5.964844 15.910156 5.941406 15.523438 6.160156 15.269531 C 6.382812 15.015625 6.765625 14.988281 7.019531 15.207031 C 7.132812 15.304688 9.792969 17.535156 12.8125 15.191406 C 13.078125 14.980469 13.464844 15.03125 13.671875 15.296875 Z M 13.671875 15.296875 "/>
</g>
</svg>
