<svg width="130" height="35" viewBox="0 0 130 35" fill="none" xmlns="http://www.w3.org/2000/svg">
<g clip-path="url(#clip0_807_2008)">
<path d="M35.9917 4.2002H41.9417C43.4583 4.2002 44.5667 4.60853 45.2667 5.30853C45.9667 5.89186 46.2583 6.70853 46.2583 7.5252C46.2583 7.81686 46.2583 8.2252 46.1417 8.51686C45.9667 9.04186 45.6167 9.50853 45.2083 9.91686C45.0333 10.0919 44.8 10.2085 44.625 10.3252C45.325 10.5002 45.9667 10.9085 46.4333 11.4335C46.8417 11.9585 47.0167 12.5419 47.0167 13.4169C47.0167 13.9419 46.9 14.5252 46.725 14.9335C46.55 15.3419 46.1417 15.7502 45.7333 16.0419C45.2083 16.3335 44.7417 16.5669 44.2167 16.7419C43.6333 16.9169 42.875 16.9169 42.2333 16.9169H36.1083V4.2002H35.9917ZM41.4167 9.4502C41.9417 9.4502 42.4083 9.33353 42.9333 9.15853C43.3417 8.98353 43.5167 8.5752 43.5167 8.16686C43.5167 7.75853 43.3417 7.3502 42.9917 7.1752C42.5833 6.88353 42.0583 6.76686 41.5917 6.88353H38.7917V9.56686H41.4167V9.4502ZM42.1167 14.5835C42.6417 14.5835 43.1083 14.4669 43.6333 14.2919C44.0417 14.1169 44.2167 13.7085 44.1583 13.1835C44.1583 12.7752 43.9833 12.3669 43.6333 12.1919C43.3417 12.0169 42.7 11.7835 42 11.7835H38.675V14.5835H42.1167Z" fill="#717988"/>
<path d="M50.575 4.2002H53.4333V17.0919H50.575V4.2002Z" fill="#717988"/>
<path d="M57.75 4.2002H60.375L66.3833 12.1919V4.2002H69.1833V17.0919H66.7917L60.4333 8.9252V17.0919H57.75V4.2002Z" fill="#717988"/>
<path d="M77.7583 4.1416H80.3833L85.925 17.0916H83.0083L81.7833 14.1749H76.3583L75.1333 17.0916H72.2167L77.7583 4.1416ZM80.7917 11.7833L79.1 7.58327L77.4083 11.7833H80.7917Z" fill="#717988"/>
<path d="M88.9 4.2002H91.525L97.5333 12.1919V4.2002H100.392V17.0919H97.9417L91.7 8.9252V17.0919H88.9V4.2002Z" fill="#717988"/>
<path d="M110.6 17.2668C109.667 17.2668 108.792 17.0918 107.975 16.7418C106.342 16.0418 105.175 14.8168 104.475 13.2418C104.183 12.4251 103.95 11.5501 103.95 10.6168C103.95 8.92513 104.65 7.17513 105.875 5.8918C106.458 5.30846 107.217 4.78346 107.975 4.4918C108.908 4.08346 109.783 3.9668 110.658 3.9668C111.183 3.9668 111.767 3.9668 112.292 4.08346C112.817 4.20013 113.225 4.25846 113.633 4.4918C114.042 4.6668 114.45 4.90013 114.742 5.07513C115.033 5.25013 115.442 5.60013 115.733 5.8918L114.042 7.9918C113.517 7.58346 113.05 7.17513 112.525 6.88346C112 6.5918 111.417 6.47513 110.833 6.47513C110.308 6.47513 109.842 6.5918 109.317 6.7668C108.792 6.9418 108.383 7.2918 108.092 7.70013C107.8 8.10846 107.508 8.5168 107.275 9.0418C107.1 9.5668 106.983 10.0335 106.983 10.5585C106.983 11.0835 107.1 11.6668 107.275 12.1918C107.508 12.7168 107.683 13.1251 108.092 13.5335C108.792 14.3501 109.783 14.7585 110.775 14.7585C111.358 14.7585 112.117 14.6418 112.7 14.3501C113.225 14.0585 113.808 13.6501 114.217 13.2418L116.025 15.0501C115.733 15.3418 115.325 15.7501 115.033 16.0418C114.625 16.3335 114.217 16.5668 113.808 16.7418C113.4 16.9168 112.875 17.1501 112.408 17.2668C111.708 17.2668 111.125 17.2668 110.6 17.2668Z" fill="#717988"/>
<path d="M119.292 4.2002H128.917V6.70853H121.975V9.33353H128.1V11.8419H121.975V14.5835H129.033V17.0919H119.292V4.2002Z" fill="#717988"/>
<path d="M39.6083 29.7501C38.9083 29.7501 38.2083 29.6334 37.625 29.3418C37.0417 29.1668 36.4 28.7584 35.8167 28.2334L36.8083 27.1251C37.2167 27.5334 37.625 27.7084 38.15 28.0584C38.675 28.2334 39.1417 28.3501 39.6667 28.3501C40.075 28.3501 40.4833 28.2334 40.8917 28.0584C41.1833 27.8834 41.3 27.5334 41.3 27.2418C41.3 27.1251 41.3 26.9501 41.1833 26.8334C41.0667 26.7168 41.0083 26.5418 40.8917 26.4251C40.7167 26.3084 40.4833 26.2501 40.3083 26.1334C40.0167 26.0168 39.6083 25.9584 39.3167 25.8418C38.9083 25.7251 38.3833 25.6668 37.975 25.4334C37.6833 25.3168 37.275 25.1418 37.0417 24.9084C36.8667 24.7334 36.6333 24.5001 36.4583 24.2084C36.2833 23.8001 36.2833 23.3918 36.2833 23.1001C36.2833 22.6918 36.4 22.4001 36.4583 21.9918C36.575 21.7001 36.8667 21.4084 37.0417 21.1751C37.3333 21.0001 37.625 20.7668 38.0333 20.6501C38.4417 20.5334 38.85 20.4751 39.2583 20.4751C39.8417 20.4751 40.4833 20.5918 41.0667 20.7668C41.5917 20.9418 42.0583 21.2918 42.5833 21.5834L41.7667 22.8084C41.3583 22.5168 40.95 22.2834 40.5417 22.1084C40.1333 21.9334 39.725 21.9334 39.3167 21.9334C38.9083 21.9334 38.5 22.0501 38.2083 22.2251C38.0333 22.4001 37.8 22.7501 37.8 23.0418C37.8 23.2168 37.8 23.3334 37.9167 23.5668C38.0333 23.6834 38.0917 23.8584 38.2083 23.9751C38.3833 24.0918 38.6167 24.1501 38.9083 24.2668C39.2 24.3834 39.4917 24.4418 40.0167 24.5584C40.425 24.6751 40.8333 24.7334 41.3583 24.9668C41.65 25.0834 41.9417 25.2584 42.2917 25.4918C42.4667 25.6668 42.7 26.0168 42.8167 26.1918C42.9333 26.4834 42.9917 26.7751 42.9917 27.1834C42.9917 27.5918 42.875 28.0001 42.8167 28.2918C42.6417 28.5834 42.4083 28.8751 42.1167 29.2251C41.825 29.4001 41.5333 29.6334 41.125 29.7501C40.5417 29.6918 40.0167 29.7501 39.6083 29.7501Z" fill="#717988"/>
<path d="M44.625 20.5918H46.375L49.0583 24.8501L51.9167 20.5918H53.6083V29.6918H51.975V23.1001L49.175 27.3585H49.0583L46.2583 23.1001V29.6918H44.625V20.5918Z" fill="#717988"/>
<path d="M59.0333 20.5332H60.55L64.4583 29.5749H62.7667L61.8333 27.3582H57.6333L56.7 29.5749H55.0667L59.0333 20.5332ZM61.3667 26.0749L59.7333 22.4582L58.2167 26.0749H61.3667Z" fill="#717988"/>
<path d="M66.0917 20.5918H70.1167C70.6417 20.5918 71.1083 20.7085 71.6333 20.7668C72.0417 20.8835 72.45 21.1751 72.7417 21.4668C72.9167 21.6418 73.15 21.9918 73.325 22.4001C73.4417 22.6918 73.5 23.1001 73.5 23.5085C73.5 23.8001 73.3833 24.2085 73.325 24.5001C73.2083 24.7918 73.0333 25.0251 72.9167 25.3168C72.7417 25.4918 72.5083 25.7251 72.2167 25.9001C71.925 26.0751 71.6333 26.1918 71.2833 26.3085L73.675 29.7501H71.75L69.5333 26.6585H67.55V29.7501H65.9167L66.0917 20.5918ZM70 25.0251C70.525 25.0251 70.9917 24.9085 71.3417 24.6168C71.6333 24.3251 71.8667 23.9168 71.8667 23.5085C71.8667 23.1001 71.6917 22.6918 71.3417 22.4001C70.9333 22.1085 70.4083 21.9918 69.9417 21.9918H67.6083V25.0251H70Z" fill="#717988"/>
<path d="M77.6417 22.0501H74.725V20.5918H82.075V22.0501H79.1583V29.6918H77.525L77.6417 22.0501Z" fill="#717988"/>
<path d="M91.8167 29.7498C91.2333 29.7498 90.5917 29.6332 90.0083 29.3415C88.9 28.8165 88.025 27.9998 87.6167 26.9498C87.4417 26.3665 87.2083 25.7248 87.325 25.1415C87.325 24.5582 87.4417 23.9165 87.6167 23.3332C88.025 22.2248 88.9583 21.3498 90.0083 20.8248C90.5917 20.6498 91.2333 20.4165 91.9333 20.4165C92.3417 20.4165 92.75 20.4165 93.0417 20.5332C93.3333 20.6498 93.625 20.7082 93.975 20.8248C94.2667 20.9415 94.5 21.1165 94.7917 21.2332C94.9667 21.4082 95.3167 21.6415 95.4917 21.8165L94.5 23.0415C94.2083 22.7498 93.8 22.4582 93.3917 22.2248C92.9833 22.0498 92.4583 21.9332 91.9917 21.9332C91.5833 21.9332 91.175 22.0498 90.7667 22.1082C90.3583 22.2832 90.0667 22.5165 89.775 22.8082C89.4833 23.0998 89.25 23.3915 89.1917 23.7998C89.075 24.2082 89.0167 24.6165 89.0167 25.0248C89.0167 25.4332 89.1333 25.8415 89.1917 26.2498C89.3083 26.6582 89.4833 26.9498 89.775 27.2415C90.0667 27.5332 90.3583 27.7665 90.7667 27.9415C91.175 28.1165 91.5833 28.2332 91.9917 28.1165C92.5167 28.1165 92.9833 27.9998 93.3917 27.8248C93.8 27.6498 94.2083 27.2998 94.6167 26.8915L95.6083 27.8832C95.4333 28.0582 95.0833 28.4082 94.9083 28.5832C94.6167 28.7582 94.3833 28.9915 94.0917 29.1082C93.8 29.2248 93.5083 29.3998 93.1 29.3998C92.6333 29.7498 92.225 29.7498 91.8167 29.7498Z" fill="#717988"/>
<path d="M97.125 20.5918H98.6417V24.3251H103.017V20.5918H104.592V29.6918H103.017V25.8418H98.6417V29.6918H97.125V20.5918Z" fill="#717988"/>
<path d="M110.133 20.5332H111.65L115.558 29.5749H113.867L112.933 27.3582H108.733L107.8 29.5749H106.167L110.133 20.5332ZM112.35 26.0749L110.833 22.4582L109.317 26.0749H112.35Z" fill="#717988"/>
<path d="M117.192 20.5918H118.767V29.6918H117.192V20.5918Z" fill="#717988"/>
<path d="M121.158 20.5918H122.617L127.458 26.8335V20.5918H129.033V29.6918H127.75L122.792 23.2168V29.6918H121.158V20.5918Z" fill="#717988"/>
<path d="M18.3167 29.05V32.9583L14.875 35L11.55 33.0167V29.1083L14.875 31.0917L18.3167 29.05ZM0 15.5167L3.325 17.5V24.2083L9.04167 27.65V31.5583L0 26.25V15.5167ZM29.75 15.5167V26.25L20.5917 31.5583V27.65L26.3083 24.2083V17.5L29.75 15.5167ZM20.5917 10.15L24.0333 12.1333V16.0417L18.3167 19.4833V26.3083L14.9917 28.2917L11.6667 26.3667V19.4833L5.71667 16.1V12.1917L9.15833 10.2083L14.875 13.65L20.5917 10.15ZM5.71667 18.9L9.04167 20.8833V24.7917L5.71667 22.8083V18.9ZM24.0333 18.9V22.8083L20.7083 24.7917V20.8833L24.0333 18.9ZM3.325 6.70833L6.76667 8.69167L3.325 10.675V14.5833L0 12.6583V8.75L3.325 6.70833ZM26.425 6.70833L29.8667 8.69167V12.6L26.425 14.5833V10.675L23.1 8.75L26.425 6.70833ZM14.875 6.70833L18.3167 8.69167L14.875 10.675L11.55 8.75L14.875 6.70833ZM14.875 0L24.0333 5.30833L20.7083 7.29167L14.9917 3.85L9.15833 7.29167L5.83333 5.30833L14.875 0Z" fill="#717988"/>
</g>
<defs>
<clipPath id="clip0_807_2008">
<rect width="129.033" height="35" fill="white"/>
</clipPath>
</defs>
</svg>
