<?xml version="1.0" encoding="UTF-8"?>
<svg xmlns="http://www.w3.org/2000/svg" xmlns:xlink="http://www.w3.org/1999/xlink" width="24px" height="24px" viewBox="0 0 24 24" version="1.1">
<g id="surface1">
<path style=" stroke:none;fill-rule:nonzero;fill:rgb(100%,100%,100%);fill-opacity:1;" d="M 18.125 9.957031 L 15.066406 9.957031 C 14.851562 9.957031 14.679688 10.128906 14.679688 10.339844 L 14.679688 12.382812 C 14.679688 12.59375 14.851562 12.765625 15.066406 12.765625 L 18.125 12.765625 C 18.335938 12.765625 18.511719 12.59375 18.511719 12.382812 L 18.511719 10.339844 C 18.511719 10.128906 18.335938 9.957031 18.125 9.957031 Z M 17.746094 12 L 15.445312 12 L 15.445312 10.726562 L 17.746094 10.726562 Z M 17.746094 12 "/>
<path style=" stroke:none;fill-rule:nonzero;fill:rgb(100%,100%,100%);fill-opacity:1;" d="M 13.53125 9.957031 L 10.46875 9.957031 C 10.257812 9.957031 10.082031 10.128906 10.082031 10.339844 L 10.082031 12.382812 C 10.082031 12.59375 10.257812 12.765625 10.46875 12.765625 L 13.53125 12.765625 C 13.742188 12.765625 13.917969 12.59375 13.917969 12.382812 L 13.917969 10.339844 C 13.917969 10.128906 13.742188 9.957031 13.53125 9.957031 Z M 13.148438 12 L 10.851562 12 L 10.851562 10.726562 L 13.148438 10.726562 Z M 13.148438 12 "/>
<path style=" stroke:none;fill-rule:nonzero;fill:rgb(100%,100%,100%);fill-opacity:1;" d="M 13.53125 18.125 L 10.46875 18.125 C 10.257812 18.125 10.082031 18.300781 10.082031 18.511719 L 10.082031 21.578125 C 10.082031 21.789062 10.257812 21.957031 10.46875 21.957031 L 13.53125 21.957031 C 13.742188 21.957031 13.917969 21.789062 13.917969 21.578125 L 13.917969 18.511719 C 13.917969 18.300781 13.742188 18.125 13.53125 18.125 Z M 13.148438 21.191406 L 10.851562 21.191406 L 10.851562 18.894531 L 13.148438 18.894531 Z M 13.148438 21.191406 "/>
<path style=" stroke:none;fill-rule:nonzero;fill:rgb(100%,100%,100%);fill-opacity:1;" d="M 13.53125 13.53125 L 10.46875 13.53125 C 10.257812 13.53125 10.082031 13.703125 10.082031 13.917969 L 10.082031 16.976562 C 10.082031 17.1875 10.257812 17.363281 10.46875 17.363281 L 13.53125 17.363281 C 13.742188 17.363281 13.917969 17.1875 13.917969 16.976562 L 13.917969 13.917969 C 13.917969 13.703125 13.742188 13.53125 13.53125 13.53125 Z M 13.148438 16.59375 L 10.851562 16.59375 L 10.851562 14.296875 L 13.148438 14.296875 Z M 13.148438 16.59375 "/>
<path style=" stroke:none;fill-rule:nonzero;fill:rgb(100%,100%,100%);fill-opacity:1;" d="M 8.933594 9.957031 L 5.875 9.957031 C 5.664062 9.957031 5.488281 10.128906 5.488281 10.339844 L 5.488281 12.382812 C 5.488281 12.59375 5.664062 12.765625 5.875 12.765625 L 8.933594 12.765625 C 9.148438 12.765625 9.320312 12.59375 9.320312 12.382812 L 9.320312 10.339844 C 9.320312 10.128906 9.148438 9.957031 8.933594 9.957031 Z M 8.554688 12 L 6.253906 12 L 6.253906 10.726562 L 8.554688 10.726562 Z M 8.554688 12 "/>
<path style=" stroke:none;fill-rule:nonzero;fill:rgb(100%,100%,100%);fill-opacity:1;" d="M 8.933594 18.125 L 5.875 18.125 C 5.664062 18.125 5.488281 18.300781 5.488281 18.511719 L 5.488281 21.578125 C 5.488281 21.789062 5.664062 21.957031 5.875 21.957031 L 8.933594 21.957031 C 9.148438 21.957031 9.320312 21.789062 9.320312 21.578125 L 9.320312 18.511719 C 9.320312 18.300781 9.148438 18.125 8.933594 18.125 Z M 8.554688 21.191406 L 6.253906 21.191406 L 6.253906 18.894531 L 8.554688 18.894531 Z M 8.554688 21.191406 "/>
<path style=" stroke:none;fill-rule:nonzero;fill:rgb(100%,100%,100%);fill-opacity:1;" d="M 8.933594 13.53125 L 5.875 13.53125 C 5.664062 13.53125 5.488281 13.703125 5.488281 13.917969 L 5.488281 16.976562 C 5.488281 17.1875 5.664062 17.363281 5.875 17.363281 L 8.933594 17.363281 C 9.148438 17.363281 9.320312 17.1875 9.320312 16.976562 L 9.320312 13.917969 C 9.320312 13.703125 9.148438 13.53125 8.933594 13.53125 Z M 8.554688 16.59375 L 6.253906 16.59375 L 6.253906 14.296875 L 8.554688 14.296875 Z M 8.554688 16.59375 "/>
<path style=" stroke:none;fill-rule:nonzero;fill:rgb(100%,100%,100%);fill-opacity:1;" d="M 18.125 13.53125 L 15.066406 13.53125 C 14.851562 13.53125 14.679688 13.703125 14.679688 13.917969 L 14.679688 15.445312 C 14.679688 15.65625 14.851562 15.828125 15.066406 15.828125 C 15.277344 15.828125 15.445312 15.65625 15.445312 15.445312 L 15.445312 14.296875 L 17.746094 14.296875 L 17.746094 21.191406 L 15.445312 21.191406 L 15.445312 16.976562 C 15.445312 16.765625 15.277344 16.59375 15.066406 16.59375 C 14.851562 16.59375 14.679688 16.765625 14.679688 16.976562 L 14.679688 21.578125 C 14.679688 21.789062 14.851562 21.957031 15.066406 21.957031 L 18.125 21.957031 C 18.335938 21.957031 18.511719 21.789062 18.511719 21.578125 L 18.511719 13.917969 C 18.511719 13.703125 18.335938 13.53125 18.125 13.53125 Z M 18.125 13.53125 "/>
<path style=" stroke:none;fill-rule:nonzero;fill:rgb(100%,100%,100%);fill-opacity:1;" d="M 18.636719 0 L 5.363281 0 C 4.308594 0 3.445312 0.859375 3.445312 1.917969 L 3.445312 22.082031 C 3.445312 23.140625 4.308594 24 5.363281 24 L 18.636719 24 C 19.691406 24 20.554688 23.140625 20.554688 22.082031 L 20.554688 1.917969 C 20.554688 0.859375 19.691406 0 18.636719 0 Z M 19.785156 22.082031 C 19.785156 22.71875 19.269531 23.234375 18.636719 23.234375 L 5.363281 23.234375 C 4.730469 23.234375 4.214844 22.71875 4.214844 22.082031 L 4.214844 1.917969 C 4.214844 1.28125 4.730469 0.765625 5.363281 0.765625 L 18.636719 0.765625 C 19.269531 0.765625 19.785156 1.28125 19.785156 1.917969 Z M 19.785156 22.082031 "/>
<path style=" stroke:none;fill-rule:nonzero;fill:rgb(100%,100%,100%);fill-opacity:1;" d="M 18.125 2.042969 L 5.875 2.042969 C 5.664062 2.042969 5.488281 2.210938 5.488281 2.421875 L 5.488281 7.273438 C 5.488281 7.484375 5.664062 7.660156 5.875 7.660156 L 18.125 7.660156 C 18.335938 7.660156 18.511719 7.484375 18.511719 7.273438 L 18.511719 2.421875 C 18.511719 2.210938 18.335938 2.042969 18.125 2.042969 Z M 6.253906 6.894531 L 6.253906 2.808594 L 11.328125 2.808594 L 7.246094 6.894531 Z M 17.746094 6.894531 L 12.671875 6.894531 L 13.898438 5.664062 C 14.046875 5.511719 14.046875 5.273438 13.898438 5.125 C 13.75 4.972656 13.507812 4.972656 13.359375 5.125 L 11.585938 6.894531 L 8.328125 6.894531 L 12.414062 2.808594 L 15.671875 2.808594 L 14.441406 4.039062 C 14.292969 4.1875 14.292969 4.429688 14.441406 4.578125 C 14.515625 4.65625 14.617188 4.691406 14.714844 4.691406 C 14.808594 4.691406 14.90625 4.65625 14.980469 4.578125 L 16.753906 2.808594 L 17.746094 2.808594 Z M 17.746094 6.894531 "/>
</g>
</svg>
