<?xml version="1.0" encoding="UTF-8"?>
<svg xmlns="http://www.w3.org/2000/svg" xmlns:xlink="http://www.w3.org/1999/xlink" width="24px" height="24px" viewBox="0 0 24 24" version="1.1">
<g id="surface1">
<path style=" stroke:none;fill-rule:nonzero;fill:white;fill-opacity:1;" d="M 16.203125 14.957031 C 16.125 14.480469 15.773438 14.097656 15.304688 13.976562 L 13.21875 13.441406 L 13.21875 12.707031 C 13.992188 12.171875 14.460938 11.285156 14.460938 10.339844 L 14.460938 9.097656 C 14.460938 7.738281 13.359375 6.636719 12 6.636719 L 11.171875 6.636719 C 9.8125 6.636719 8.707031 7.738281 8.707031 9.097656 L 8.707031 10.339844 C 8.707031 11.285156 9.179688 12.171875 9.953125 12.707031 L 9.953125 13.441406 L 7.863281 13.976562 C 7.398438 14.097656 7.046875 14.480469 6.964844 14.957031 L 6.800781 15.945312 C 6.742188 16.300781 6.839844 16.660156 7.074219 16.933594 C 7.304688 17.207031 7.644531 17.363281 8.003906 17.363281 L 15.167969 17.363281 C 15.527344 17.363281 15.867188 17.207031 16.097656 16.933594 C 16.328125 16.660156 16.429688 16.300781 16.371094 15.945312 Z M 15.503906 16.433594 C 15.417969 16.53125 15.300781 16.585938 15.167969 16.585938 L 8.003906 16.585938 C 7.871094 16.585938 7.75 16.53125 7.667969 16.433594 C 7.582031 16.332031 7.546875 16.203125 7.566406 16.074219 L 7.734375 15.085938 C 7.761719 14.914062 7.890625 14.773438 8.058594 14.730469 L 10.4375 14.117188 C 10.609375 14.074219 10.730469 13.917969 10.730469 13.742188 L 10.730469 12.492188 C 10.730469 12.355469 10.65625 12.226562 10.535156 12.15625 C 9.886719 11.78125 9.484375 11.085938 9.484375 10.339844 L 9.484375 9.097656 C 9.484375 8.167969 10.242188 7.414062 11.171875 7.414062 L 12 7.414062 C 12.929688 7.414062 13.683594 8.167969 13.683594 9.097656 L 13.683594 10.339844 C 13.683594 11.085938 13.28125 11.78125 12.632812 12.15625 C 12.515625 12.226562 12.441406 12.355469 12.441406 12.492188 L 12.441406 13.742188 C 12.441406 13.917969 12.5625 14.074219 12.734375 14.117188 L 15.113281 14.730469 C 15.28125 14.773438 15.410156 14.914062 15.4375 15.085938 L 15.601562 16.074219 C 15.625 16.203125 15.589844 16.332031 15.503906 16.433594 Z M 15.503906 16.433594 "/>
<path style=" stroke:none;fill-rule:nonzero;fill:white;fill-opacity:1;" d="M 21.125 2.074219 L 20.683594 2.074219 L 20.683594 1.632812 C 20.683594 0.734375 19.949219 0 19.050781 0 L 4.121094 0 C 3.21875 0 2.488281 0.734375 2.488281 1.632812 L 2.488281 3.316406 L 2.046875 3.316406 C 1.832031 3.316406 1.660156 3.492188 1.660156 3.707031 C 1.660156 3.921875 1.832031 4.09375 2.046875 4.09375 L 2.488281 4.09375 L 2.488281 5.390625 L 2.046875 5.390625 C 1.832031 5.390625 1.660156 5.566406 1.660156 5.78125 C 1.660156 5.996094 1.832031 6.167969 2.046875 6.167969 L 2.488281 6.167969 L 2.488281 7.464844 L 2.046875 7.464844 C 1.832031 7.464844 1.660156 7.636719 1.660156 7.851562 C 1.660156 8.066406 1.832031 8.242188 2.046875 8.242188 L 2.488281 8.242188 L 2.488281 9.539062 L 2.046875 9.539062 C 1.832031 9.539062 1.660156 9.710938 1.660156 9.925781 C 1.660156 10.140625 1.832031 10.316406 2.046875 10.316406 L 2.488281 10.316406 L 2.488281 11.609375 L 2.046875 11.609375 C 1.832031 11.609375 1.660156 11.785156 1.660156 12 C 1.660156 12.214844 1.832031 12.390625 2.046875 12.390625 L 2.488281 12.390625 L 2.488281 13.683594 L 2.046875 13.683594 C 1.832031 13.683594 1.660156 13.859375 1.660156 14.074219 C 1.660156 14.289062 1.832031 14.460938 2.046875 14.460938 L 2.488281 14.460938 L 2.488281 15.757812 L 2.046875 15.757812 C 1.832031 15.757812 1.660156 15.933594 1.660156 16.148438 C 1.660156 16.363281 1.832031 16.535156 2.046875 16.535156 L 2.488281 16.535156 L 2.488281 17.832031 L 2.046875 17.832031 C 1.832031 17.832031 1.660156 18.003906 1.660156 18.21875 C 1.660156 18.433594 1.832031 18.609375 2.046875 18.609375 L 2.488281 18.609375 L 2.488281 19.90625 L 2.046875 19.90625 C 1.832031 19.90625 1.660156 20.078125 1.660156 20.292969 C 1.660156 20.507812 1.832031 20.683594 2.046875 20.683594 L 2.488281 20.683594 L 2.488281 22.367188 C 2.488281 23.265625 3.21875 24 4.121094 24 L 19.050781 24 C 19.949219 24 20.683594 23.265625 20.683594 22.367188 L 20.683594 15.292969 L 21.125 15.292969 C 21.792969 15.292969 22.339844 14.746094 22.339844 14.074219 L 22.339844 3.292969 C 22.339844 2.621094 21.792969 2.074219 21.125 2.074219 Z M 20.683594 7.828125 L 21.5625 7.828125 L 21.5625 9.539062 L 20.683594 9.539062 Z M 20.683594 7.050781 L 20.683594 5.339844 L 21.5625 5.339844 L 21.5625 7.050781 Z M 20.683594 10.316406 L 21.5625 10.316406 L 21.5625 12.027344 L 20.683594 12.027344 Z M 21.125 2.851562 C 21.367188 2.851562 21.5625 3.046875 21.5625 3.292969 L 21.5625 4.5625 L 20.683594 4.5625 L 20.683594 2.851562 Z M 19.90625 22.367188 C 19.90625 22.839844 19.519531 23.222656 19.050781 23.222656 L 4.121094 23.222656 C 3.648438 23.222656 3.265625 22.839844 3.265625 22.367188 L 3.265625 20.683594 L 3.707031 20.683594 C 3.921875 20.683594 4.09375 20.507812 4.09375 20.292969 C 4.09375 20.078125 3.921875 19.90625 3.707031 19.90625 L 3.265625 19.90625 L 3.265625 18.609375 L 3.707031 18.609375 C 3.921875 18.609375 4.09375 18.433594 4.09375 18.21875 C 4.09375 18.003906 3.921875 17.832031 3.707031 17.832031 L 3.265625 17.832031 L 3.265625 16.535156 L 3.707031 16.535156 C 3.921875 16.535156 4.09375 16.363281 4.09375 16.148438 C 4.09375 15.933594 3.921875 15.757812 3.707031 15.757812 L 3.265625 15.757812 L 3.265625 14.460938 L 3.707031 14.460938 C 3.921875 14.460938 4.09375 14.289062 4.09375 14.074219 C 4.09375 13.859375 3.921875 13.683594 3.707031 13.683594 L 3.265625 13.683594 L 3.265625 12.390625 L 3.707031 12.390625 C 3.921875 12.390625 4.09375 12.214844 4.09375 12 C 4.09375 11.785156 3.921875 11.609375 3.707031 11.609375 L 3.265625 11.609375 L 3.265625 10.316406 L 3.707031 10.316406 C 3.921875 10.316406 4.09375 10.140625 4.09375 9.925781 C 4.09375 9.710938 3.921875 9.539062 3.707031 9.539062 L 3.265625 9.539062 L 3.265625 8.242188 L 3.707031 8.242188 C 3.921875 8.242188 4.09375 8.066406 4.09375 7.851562 C 4.09375 7.636719 3.921875 7.464844 3.707031 7.464844 L 3.265625 7.464844 L 3.265625 6.167969 L 3.707031 6.167969 C 3.921875 6.167969 4.09375 5.996094 4.09375 5.78125 C 4.09375 5.566406 3.921875 5.390625 3.707031 5.390625 L 3.265625 5.390625 L 3.265625 4.09375 L 3.707031 4.09375 C 3.921875 4.09375 4.09375 3.921875 4.09375 3.707031 C 4.09375 3.492188 3.921875 3.316406 3.707031 3.316406 L 3.265625 3.316406 L 3.265625 1.632812 C 3.265625 1.160156 3.648438 0.777344 4.121094 0.777344 L 19.050781 0.777344 C 19.519531 0.777344 19.90625 1.160156 19.90625 1.632812 Z M 21.125 14.515625 L 20.683594 14.515625 L 20.683594 12.804688 L 21.5625 12.804688 L 21.5625 14.074219 C 21.5625 14.316406 21.367188 14.515625 21.125 14.515625 Z M 21.125 14.515625 "/>
</g>
</svg>
