<?xml version="1.0" encoding="UTF-8"?>
<svg xmlns="http://www.w3.org/2000/svg" xmlns:xlink="http://www.w3.org/1999/xlink" width="20px" height="20px" viewBox="0 0 20 20" version="1.1">
<g id="surface1">
<path style=" stroke:none;fill-rule:nonzero;fill:rgb(95.294118%,72.941176%,18.431373%);fill-opacity:1;" d="M 20 10 C 20 15.523438 15.523438 20 10 20 C 4.476562 20 0 15.523438 0 10 C 0 4.476562 4.476562 0 10 0 C 15.523438 0 20 4.476562 20 10 Z M 20 10 "/>
<path style=" stroke:none;fill-rule:nonzero;fill:rgb(100%,100%,100%);fill-opacity:1;" d="M 7.90625 9.140625 L 10 7.046875 L 12.09375 9.140625 L 13.308594 7.925781 L 10 4.617188 L 6.691406 7.921875 Z M 7.90625 9.140625 "/>
<path style=" stroke:none;fill-rule:nonzero;fill:rgb(100%,100%,100%);fill-opacity:1;" d="M 4.617188 10 L 5.832031 8.78125 L 7.050781 10 L 5.832031 11.214844 Z M 4.617188 10 "/>
<path style=" stroke:none;fill-rule:nonzero;fill:rgb(100%,100%,100%);fill-opacity:1;" d="M 7.90625 10.859375 L 10 12.953125 L 12.09375 10.859375 L 13.3125 12.074219 L 13.308594 12.074219 L 10 15.382812 L 6.691406 12.078125 L 6.6875 12.074219 Z M 7.90625 10.859375 "/>
<path style=" stroke:none;fill-rule:nonzero;fill:rgb(100%,100%,100%);fill-opacity:1;" d="M 12.949219 10 L 14.167969 8.785156 L 15.382812 10 L 14.167969 11.21875 Z M 12.949219 10 "/>
<path style=" stroke:none;fill-rule:nonzero;fill:rgb(100%,100%,100%);fill-opacity:1;" d="M 11.234375 10 L 10 8.765625 L 8.765625 10 L 10 11.238281 Z M 11.234375 10 "/>
</g>
</svg>
