<?xml version="1.0" encoding="UTF-8"?>
<svg xmlns="http://www.w3.org/2000/svg" xmlns:xlink="http://www.w3.org/1999/xlink" width="20px" height="20px" viewBox="0 0 20 20" version="1.1">
<g id="surface1">
<path style=" stroke:none;fill-rule:nonzero;fill:white;fill-opacity:1;" d="M 16.941406 3.523438 C 15.648438 2.917969 14.261719 2.476562 12.816406 2.226562 C 12.636719 2.546875 12.429688 2.980469 12.289062 3.324219 C 10.75 3.09375 9.222656 3.09375 7.714844 3.324219 C 7.570312 2.980469 7.359375 2.546875 7.179688 2.226562 C 5.730469 2.476562 4.34375 2.917969 3.050781 3.527344 C 0.4375 7.472656 -0.269531 11.320312 0.0859375 15.113281 C 1.816406 16.40625 3.496094 17.191406 5.144531 17.707031 C 5.554688 17.144531 5.917969 16.550781 6.230469 15.921875 C 5.632812 15.695312 5.0625 15.414062 4.523438 15.089844 C 4.664062 14.984375 4.804688 14.875 4.941406 14.761719 C 8.230469 16.300781 11.808594 16.300781 15.058594 14.761719 C 15.195312 14.875 15.335938 14.984375 15.476562 15.089844 C 14.9375 15.417969 14.363281 15.695312 13.765625 15.921875 C 14.082031 16.550781 14.441406 17.148438 14.851562 17.707031 C 16.503906 17.195312 18.183594 16.410156 19.914062 15.113281 C 20.332031 10.714844 19.207031 6.902344 16.941406 3.523438 Z M 6.675781 12.78125 C 5.691406 12.78125 4.878906 11.859375 4.878906 10.734375 C 4.878906 9.613281 5.671875 8.6875 6.675781 8.6875 C 7.683594 8.6875 8.492188 9.609375 8.476562 10.734375 C 8.476562 11.859375 7.683594 12.78125 6.675781 12.78125 Z M 13.324219 12.78125 C 12.335938 12.78125 11.523438 11.859375 11.523438 10.734375 C 11.523438 9.613281 12.316406 8.6875 13.324219 8.6875 C 14.328125 8.6875 15.136719 9.609375 15.121094 10.734375 C 15.121094 11.859375 14.328125 12.78125 13.324219 12.78125 Z M 13.324219 12.78125 "/>
</g>
</svg>
