<?xml version="1.0" encoding="UTF-8"?>
<svg xmlns="http://www.w3.org/2000/svg" xmlns:xlink="http://www.w3.org/1999/xlink" width="24px" height="24px" viewBox="0 0 24 24" version="1.1">
<g id="surface1">
<path style=" stroke:none;fill-rule:nonzero;fill:rgb(100%,100%,100%);fill-opacity:1;" d="M 24 11.984375 C 24 5.371094 18.625 0 12 0 C 5.375 0 0 5.371094 0 11.984375 C 0 15.632812 1.65625 18.917969 4.246094 21.121094 C 4.269531 21.144531 4.292969 21.144531 4.292969 21.167969 C 4.515625 21.335938 4.730469 21.507812 4.96875 21.675781 C 5.085938 21.746094 5.183594 21.84375 5.304688 21.9375 C 7.289062 23.28125 9.628906 24 12.023438 24 C 14.417969 24 16.761719 23.28125 18.746094 21.9375 C 18.863281 21.867188 18.960938 21.769531 19.078125 21.699219 C 19.292969 21.53125 19.539062 21.359375 19.753906 21.195312 C 19.777344 21.167969 19.800781 21.167969 19.800781 21.144531 C 22.34375 18.917969 24 15.632812 24 11.984375 Z M 12 22.492188 C 9.746094 22.492188 7.679688 21.769531 5.976562 20.570312 C 6 20.382812 6.046875 20.1875 6.09375 19.996094 C 6.238281 19.476562 6.449219 18.976562 6.722656 18.511719 C 6.984375 18.054688 7.292969 17.644531 7.679688 17.289062 C 8.039062 16.925781 8.46875 16.59375 8.90625 16.328125 C 9.359375 16.0625 9.839844 15.871094 10.367188 15.726562 C 10.898438 15.585938 11.445312 15.511719 12 15.511719 C 13.636719 15.5 15.210938 16.128906 16.390625 17.265625 C 16.945312 17.8125 17.375 18.464844 17.6875 19.203125 C 17.855469 19.636719 17.976562 20.089844 18.046875 20.570312 C 16.273438 21.816406 14.164062 22.484375 12 22.492188 Z M 8.328125 11.390625 C 8.117188 10.902344 8.011719 10.382812 8.015625 9.851562 C 8.015625 9.328125 8.113281 8.796875 8.328125 8.320312 C 8.546875 7.835938 8.832031 7.40625 9.191406 7.050781 C 9.554688 6.6875 9.984375 6.402344 10.460938 6.1875 C 10.945312 5.972656 11.46875 5.875 12 5.875 C 12.554688 5.875 13.054688 5.972656 13.539062 6.1875 C 14.015625 6.402344 14.445312 6.6875 14.808594 7.050781 C 15.167969 7.40625 15.453125 7.84375 15.671875 8.320312 C 15.886719 8.796875 15.984375 9.328125 15.984375 9.851562 C 15.984375 10.40625 15.886719 10.90625 15.671875 11.386719 C 15.464844 11.859375 15.167969 12.289062 14.808594 12.660156 C 14.4375 13.023438 14.011719 13.3125 13.539062 13.523438 C 12.542969 13.929688 11.433594 13.929688 10.4375 13.523438 C 9.964844 13.3125 9.535156 13.023438 9.167969 12.660156 C 8.804688 12.296875 8.515625 11.863281 8.328125 11.386719 Z M 19.460938 19.351562 C 19.460938 19.296875 19.4375 19.273438 19.4375 19.226562 C 19.203125 18.476562 18.859375 17.765625 18.40625 17.117188 C 17.957031 16.46875 17.410156 15.890625 16.777344 15.417969 C 16.292969 15.050781 15.769531 14.746094 15.214844 14.503906 C 15.46875 14.339844 15.703125 14.148438 15.914062 13.929688 C 16.269531 13.574219 16.585938 13.179688 16.847656 12.753906 C 17.382812 11.882812 17.652344 10.875 17.640625 9.851562 C 17.648438 9.097656 17.5 8.347656 17.207031 7.648438 C 16.917969 6.976562 16.503906 6.367188 15.984375 5.851562 C 15.464844 5.339844 14.855469 4.929688 14.183594 4.648438 C 13.484375 4.359375 12.730469 4.210938 11.976562 4.21875 C 11.21875 4.214844 10.46875 4.359375 9.769531 4.648438 C 9.09375 4.9375 8.480469 5.347656 7.96875 5.875 C 7.457031 6.394531 7.050781 7.003906 6.769531 7.671875 C 6.472656 8.371094 6.328125 9.121094 6.335938 9.875 C 6.335938 10.40625 6.40625 10.90625 6.554688 11.386719 C 6.695312 11.890625 6.886719 12.347656 7.152344 12.777344 C 7.390625 13.210938 7.730469 13.59375 8.085938 13.953125 C 8.304688 14.171875 8.546875 14.363281 8.808594 14.53125 C 8.253906 14.78125 7.730469 15.09375 7.246094 15.464844 C 6.625 15.945312 6.070312 16.519531 5.617188 17.140625 C 5.164062 17.789062 4.8125 18.5 4.585938 19.25 C 4.5625 19.296875 4.5625 19.351562 4.5625 19.375 C 2.664062 17.457031 1.484375 14.863281 1.484375 11.984375 C 1.484375 6.210938 6.214844 1.484375 12 1.484375 C 17.785156 1.484375 22.515625 6.210938 22.515625 11.984375 C 22.507812 14.746094 21.414062 17.394531 19.460938 19.351562 Z M 19.460938 19.351562 "/>
</g>
</svg>
