<svg width="144" height="32" viewBox="0 0 144 32" fill="none" xmlns="http://www.w3.org/2000/svg">
<g clip-path="url(#clip0_807_2095)">
<path d="M56.1067 10.1866C56.96 10.72 57.7067 11.4666 58.1867 12.48C58.72 13.4933 58.9867 14.72 58.9867 16.0533C58.9867 17.3866 58.72 18.56 58.1333 19.5733C57.6 20.5866 56.8 21.3333 55.7867 21.8133C54.7733 22.3466 53.5467 22.6133 52.2667 22.6133C51.52 22.6133 50.8267 22.4533 50.1866 22.1866C49.4933 21.9733 48.9067 21.6 48.4267 21.12V28.16H44.48V9.6533H47.84L48.16 11.1466C49.6533 9.91996 51.2533 9.3333 52.96 9.3333C54.1333 9.27996 55.2 9.54663 56.1067 10.1866ZM53.92 18.56C54.6133 17.9733 54.9333 17.12 54.9333 16.1066C54.9333 15.0933 54.6133 14.2933 53.9733 13.6C53.3867 12.9066 52.5333 12.64 51.68 12.64C50.9333 12.64 50.24 12.8 49.7066 13.12C49.1733 13.3866 48.7467 13.8666 48.4267 14.4533V17.4933C48.64 18.08 49.0133 18.56 49.4933 18.9333C50.0267 19.2533 50.6667 19.4666 51.4133 19.4666C52.4267 19.52 53.2267 19.2 53.92 18.56Z" fill="#717988"/>
<path d="M61.28 12.5334C61.8666 11.5734 62.72 10.7734 63.7866 10.2401C64.8533 9.70672 66.08 9.38672 67.4133 9.38672C68.7466 9.38672 69.9733 9.65339 71.04 10.2401C72.0533 10.7734 72.8533 11.5734 73.4933 12.5867C74.1333 13.6001 74.3466 14.6667 74.3466 15.9467C74.3466 17.2267 74.08 18.2934 73.4933 19.3067C72.9066 20.3201 72.16 21.12 71.04 21.6534C70.0266 22.1867 68.7466 22.5067 67.4133 22.5067C66.08 22.5067 64.8533 22.2401 63.7866 21.7067C62.72 21.1734 61.8666 20.4267 61.28 19.4134C60.7466 18.4001 60.4266 17.2267 60.4266 15.8934C60.4266 14.7201 60.7466 13.5467 61.28 12.5334ZM65.28 18.4534C65.8133 19.1467 66.56 19.4134 67.4666 19.4134C68.3733 19.4134 69.0666 19.0934 69.6533 18.4534C70.1866 17.8667 70.4533 16.9601 70.4533 16.0001C70.4533 14.9867 70.1866 14.1867 69.6533 13.5467C69.0666 12.8534 68.3733 12.5334 67.4133 12.5334C66.56 12.5334 65.8666 12.8534 65.2266 13.4934C64.6933 14.1867 64.4266 14.9867 64.4266 16.0001C64.4266 16.9601 64.6933 17.76 65.28 18.4534Z" fill="#717988"/>
<path d="M80.8 0.0532227V22.2932H76.8533V0.0532227H80.8Z" fill="#717988"/>
<path d="M96.8533 9.97314L88.8534 28.2131H85.0667L88.0534 21.6531L82.3467 9.97314H86.8267L90.08 17.2798L93.3333 9.97314H96.8533Z" fill="#717988"/>
<path d="M111.893 9.97316V22.2932C111.893 23.4665 111.573 24.5332 110.88 25.4932C110.187 26.4532 109.333 27.1998 108.16 27.7332C106.987 28.2665 105.813 28.5332 104.427 28.5332C103.413 28.5332 102.507 28.3732 101.813 28.2132C101.067 27.9465 100.48 27.6798 100 27.4132C99.4667 27.0932 98.9333 26.6665 98.2933 26.1332L100.587 23.4132C101.12 23.9465 101.76 24.3732 102.293 24.6398C102.827 24.9065 103.573 25.1198 104.373 25.1198C105.387 25.1198 106.187 24.8532 106.88 24.3732C107.573 23.8932 107.893 23.1465 107.893 22.2932V20.5332C107.467 21.1198 106.933 21.7065 106.133 22.0798C105.333 22.5065 104.373 22.6665 103.307 22.6665C102.24 22.6665 101.12 22.3998 100.213 21.8132C99.2533 21.2798 98.5067 20.4798 97.92 19.4665C97.3867 18.4532 97.0667 17.3865 97.0667 16.1598C97.0667 14.9332 97.3333 13.8132 97.92 12.7998C98.5067 11.7865 99.2533 10.9865 100.267 10.3465C101.227 9.75983 102.24 9.49316 103.307 9.49316C104.32 9.49316 105.227 9.65316 106.027 9.91983C106.827 10.1865 107.467 10.6132 107.84 11.0932L108.267 10.1332H111.893V9.97316ZM107.893 17.5465V14.5065C107.627 13.9198 107.2 13.4398 106.613 13.0665C106.027 12.7465 105.333 12.5332 104.533 12.5332C103.573 12.5332 102.773 12.8532 102.08 13.4932C101.387 14.1332 101.067 14.9332 101.067 15.9465C101.067 16.9065 101.387 17.7598 102.08 18.4532C102.773 19.1465 103.573 19.4665 104.533 19.4665C106.08 19.3598 107.253 18.7732 107.893 17.5465Z" fill="#717988"/>
<path d="M115.147 12.533C115.733 11.5197 116.587 10.773 117.653 10.1863C118.72 9.65301 119.947 9.33301 121.28 9.33301C122.613 9.33301 123.84 9.59967 124.907 10.1863C125.92 10.7197 126.72 11.5197 127.36 12.533C127.893 13.5463 128.213 14.613 128.213 15.893C128.213 17.173 127.947 18.2397 127.36 19.253C126.827 20.2663 126.027 21.0663 124.907 21.5997C123.893 22.133 122.613 22.453 121.28 22.453C119.947 22.453 118.72 22.1863 117.653 21.653C116.587 21.1197 115.733 20.373 115.147 19.3597C114.56 18.3463 114.293 17.173 114.293 15.7863C114.24 14.7197 114.56 13.5463 115.147 12.533ZM119.093 18.453C119.627 19.1463 120.373 19.413 121.28 19.413C122.133 19.413 122.88 19.093 123.467 18.453C124 17.8663 124.267 16.9597 124.267 15.9997C124.267 14.9863 124 14.1863 123.467 13.5463C122.933 12.9597 122.187 12.5863 121.28 12.5863C120.427 12.5863 119.733 12.9063 119.093 13.5463C118.507 14.133 118.24 15.0397 118.24 15.9997C118.24 16.9597 118.507 17.7597 119.093 18.453Z" fill="#717988"/>
<path d="M142.133 10.3997C142.933 11.093 143.307 11.9463 143.36 13.013V22.293H139.36V14.5063C139.307 13.2797 138.667 12.693 137.547 12.693C136.693 12.693 135.947 13.1197 135.36 13.973C134.773 14.8263 134.56 15.9463 134.56 17.2263V22.293H130.613V9.97301H134.187L134.453 11.9463C134.933 11.1463 135.52 10.5063 136.373 10.0263C137.173 9.54634 138.133 9.33301 139.2 9.33301C140.373 9.38634 141.387 9.70634 142.133 10.3997Z" fill="#717988"/>
<path d="M27.68 9.76C26.9867 9.33333 26.1333 9.33333 25.3867 9.76L20.1067 12.8533L16.5333 14.9333L11.2533 18.0267C10.56 18.4533 9.70667 18.4533 8.96 18.0267L4.74667 15.5733C4.05333 15.1467 3.57333 14.4 3.57333 13.6V8.8C3.57333 8 4 7.25333 4.74667 6.82667L8.85333 4.48C9.54667 4.05333 10.4 4.05333 11.1467 4.48L15.2533 6.82667C15.9467 7.25333 16.4267 8 16.4267 8.8V11.8933L20 9.81333V6.72C20 5.92 19.5733 5.17333 18.8267 4.74667L11.2533 0.32C10.56 -0.106667 9.70667 -0.106667 8.96 0.32L1.17333 4.74667C0.426667 5.17333 0 5.92 0 6.72V15.7333C0 16.5333 0.426667 17.28 1.17333 17.7067L8.96 22.1867C9.65333 22.6133 10.5067 22.6133 11.2533 22.1867L16.5333 19.1467L20.1067 17.0667L25.3867 14.0267C26.08 13.6 26.9333 13.6 27.68 14.0267L31.7867 16.3733C32.48 16.8 32.96 17.5467 32.96 18.3467V23.1467C32.96 23.9467 32.5333 24.6933 31.7867 25.12L27.68 27.5733C26.9867 28 26.1333 28 25.3867 27.5733L21.28 25.2267C20.5867 24.8 20.1067 24.0533 20.1067 23.2533V20.16L16.5333 22.1333V25.2267C16.5333 26.0267 16.96 26.7733 17.7067 27.2L25.4933 31.68C26.1867 32.1067 27.04 32.1067 27.7867 31.68L35.5733 27.2C36.2667 26.7733 36.7467 26.0267 36.7467 25.2267V16.2667C36.7467 15.4667 36.32 14.72 35.5733 14.2933L27.68 9.76Z" fill="#717988"/>
</g>
<defs>
<clipPath id="clip0_807_2095">
<rect width="143.36" height="32" fill="white"/>
</clipPath>
</defs>
</svg>
